<?xml version="1.0" encoding="UTF-8" standalone="no"?><!DOCTYPE svg PUBLIC "-//W3C//DTD SVG 1.1//EN" "http://www.w3.org/Graphics/SVG/1.1/DTD/svg11.dtd"><svg width="100%" height="100%" viewBox="0 0 2650 487" version="1.1" xmlns="http://www.w3.org/2000/svg" xmlns:xlink="http://www.w3.org/1999/xlink" xml:space="preserve" xmlns:serif="http://www.serif.com/" style="fill-rule:evenodd;clip-rule:evenodd;stroke-linejoin:round;stroke-miterlimit:2;"><path d="M2086.46,240.779l155.888,-155.904l-80.646,-80.675l-155.917,155.904l-155.87,-155.887l-80.675,80.662l155.904,155.867l-0.054,0.05l23.7,23.683l-0,205.588l114.079,-0l-0,-205.588l23.645,-23.662l-0.054,-0.038Zm-765.85,-157.533l-82.341,-82.346l-241.496,241.496l82.329,82.308l159.167,159.167l82.341,-82.325l-159.166,-159.15l159.166,-159.15Z" style="fill:#1d1d1b;fill-rule:nonzero;"/><path d="M1126.37,277.533l35.175,-35.137l-82.309,-82.329l-0.033,0.016l-159.167,-159.129l-82.312,82.292l159.167,159.167l-159.15,159.129l82.312,82.329l159.15,-159.167l0.017,0l47.15,-47.171Z" style="fill:#00daad;fill-rule:nonzero;"/><path d="M112.033,358.038l0,-353.18l-112.033,0l0,465.209l330.138,-0l-0,-112.029l-218.105,-0Zm601.963,-165.034l-246.304,0c15.154,-62.033 66.666,-90.904 127.779,-90.904c64.825,0 112.292,28.871 118.521,90.904m-122.221,-193.004c-148.142,0 -242.588,100 -242.588,238.888c0,146.283 93.509,243.491 250.921,243.491c69.446,0 148.142,-24.083 196.304,-74.062l-72.225,-71.305c-25.937,26.859 -80.554,42.588 -122.22,42.588c-75.867,0 -123.905,-36.996 -134.705,-89.342l355.921,0l0,-18.991c12.829,-180.505 -81.687,-271.267 -231.408,-271.267" style="fill:#1d1d1b;fill-rule:nonzero;"/><path d="M1743.85,61.108c-52.779,-46.3 -106.475,-60.187 -177.775,-60.187c-83.333,-0 -192.587,37.046 -192.587,142.604c-0,103.696 102.775,135.171 188.887,141.646c64.792,3.7 90.746,21.304 90.746,52.796c0,33.333 -39.808,50.904 -82.396,49.983c-50.954,-0.921 -113.904,-18.508 -157.412,-63.887l-55.554,80.57c66.666,69.446 138.887,81.475 211.108,81.475c130.558,0 196.304,-69.441 196.304,-150.016c0,-121.284 -109.254,-140.73 -195.383,-146.3c-58.317,-3.7 -85.175,-20.367 -85.175,-50c-0,-28.7 29.637,-45.367 83.354,-45.367c43.504,0 80.554,10.192 112.95,40.746l62.933,-74.063Zm884.638,0c-52.78,-46.3 -106.475,-60.191 -177.78,-60.191c-83.333,-0 -192.587,37.05 -192.587,142.604c0,103.7 102.779,135.175 188.892,141.65c64.791,3.7 90.745,21.304 90.745,52.796c0.001,33.333 -39.808,50.904 -82.395,49.983c-50.954,-0.921 -113.909,-18.508 -157.413,-63.887l-55.558,80.57c66.667,69.446 138.892,81.475 211.112,81.475c130.555,0 196.3,-69.441 196.3,-150.016c0,-121.284 -109.254,-140.73 -195.379,-146.3c-58.316,-3.7 -85.175,-20.367 -85.175,-50c0,-28.7 29.634,-45.367 83.35,-45.367c43.509,0 80.554,10.192 112.95,40.746l62.938,-74.063Z" style="fill:#1d1d1b;fill-rule:nonzero;"/></svg>