<?xml version="1.0" encoding="UTF-8" standalone="no"?>
<!DOCTYPE svg PUBLIC "-//W3C//DTD SVG 1.1//EN" "http://www.w3.org/Graphics/SVG/1.1/DTD/svg11.dtd">
<svg width="100%" height="100%" viewBox="0 0 2650 487" version="1.1" xmlns="http://www.w3.org/2000/svg" xmlns:xlink="http://www.w3.org/1999/xlink" xml:space="preserve" xmlns:serif="http://www.serif.com/" style="fill-rule:evenodd;clip-rule:evenodd;stroke-linejoin:round;stroke-miterlimit:2;">
    <path d="M2086.46,240.779L2242.35,84.875L2161.7,4.2L2005.79,160.104L1849.91,4.217L1769.24,84.879L1925.14,240.746L1925.09,240.796L1948.79,264.479L1948.79,470.067L2062.87,470.067L2062.87,264.479L2086.51,240.817L2086.46,240.779ZM1320.61,83.246L1238.27,0.9L996.773,242.396L1079.1,324.704L1238.27,483.871L1320.61,401.546L1161.44,242.396L1320.61,83.246Z" style="fill:white;fill-rule:nonzero;"/>
    <path d="M1126.37,277.533L1161.55,242.396L1079.24,160.067L1079.2,160.083L920.036,0.954L837.724,83.246L996.891,242.413L837.741,401.542L920.053,483.871L1079.2,324.704L1079.22,324.704L1126.37,277.533Z" style="fill:rgb(0,218,173);fill-rule:nonzero;"/>
    <path d="M112.033,358.038L112.033,4.858L0,4.858L0,470.067L330.138,470.067L330.138,358.038L112.033,358.038ZM713.996,193.004L467.692,193.004C482.846,130.971 534.358,102.1 595.471,102.1C660.296,102.1 707.763,130.971 713.992,193.004M591.771,0C443.629,0 349.183,100 349.183,238.888C349.183,385.171 442.692,482.379 600.104,482.379C669.55,482.379 748.246,458.296 796.408,408.317L724.183,337.012C698.246,363.871 643.629,379.6 601.963,379.6C526.096,379.6 478.058,342.604 467.258,290.258L823.179,290.258L823.179,271.267C836.008,90.762 741.492,0 591.771,0" style="fill:white;fill-rule:nonzero;"/>
    <path d="M1743.85,61.108C1691.07,14.808 1637.38,0.921 1566.08,0.921C1482.74,0.921 1373.49,37.967 1373.49,143.525C1373.49,247.221 1476.26,278.696 1562.38,285.171C1627.17,288.871 1653.12,306.475 1653.12,337.967C1653.12,371.3 1613.31,388.871 1570.73,387.95C1519.77,387.029 1456.82,369.442 1413.31,324.063L1357.76,404.633C1424.42,474.079 1496.65,486.108 1568.87,486.108C1699.42,486.108 1765.17,416.667 1765.17,336.092C1765.17,214.808 1655.92,195.362 1569.79,189.792C1511.47,186.092 1484.61,169.425 1484.61,139.792C1484.61,111.092 1514.25,94.425 1567.97,94.425C1611.47,94.425 1648.52,104.617 1680.92,135.171L1743.85,61.108ZM2628.49,61.108C2575.71,14.808 2522.01,0.917 2450.71,0.917C2367.38,0.917 2258.12,37.967 2258.12,143.521C2258.12,247.221 2360.9,278.696 2447.01,285.171C2511.8,288.871 2537.76,306.475 2537.76,337.967C2537.76,371.3 2497.95,388.871 2455.36,387.95C2404.41,387.029 2341.45,369.442 2297.95,324.063L2242.39,404.633C2309.06,474.079 2381.28,486.108 2453.5,486.108C2584.06,486.108 2649.8,416.667 2649.8,336.092C2649.8,214.808 2540.55,195.362 2454.43,189.792C2396.11,186.092 2369.25,169.425 2369.25,139.792C2369.25,111.092 2398.88,94.425 2452.6,94.425C2496.11,94.425 2533.15,104.617 2565.55,135.171L2628.49,61.108Z" style="fill:white;fill-rule:nonzero;"/>
</svg>
